<?xml version="1.0" encoding="UTF-8"?>
<!DOCTYPE svg PUBLIC "-//W3C//DTD SVG 1.1//EN" "http://www.w3.org/Graphics/SVG/1.1/DTD/svg11.dtd">
<svg xmlns="http://www.w3.org/2000/svg" version="1.1" width="182px" height="206px" style="shape-rendering:geometricPrecision; text-rendering:geometricPrecision; image-rendering:optimizeQuality; fill-rule:evenodd; clip-rule:evenodd" xmlns:xlink="http://www.w3.org/1999/xlink">
<g><path style="opacity:0.977" fill="#edba31" d="M 85.5,2.5 C 86.8291,7.9597 87.4958,13.793 87.5,20C 87.4803,26.2441 87.1469,32.4108 86.5,38.5C 60.1623,53.98 33.6623,69.3133 7,84.5C 5.26487,83.3181 4.26487,81.6515 4,79.5C 3.26011,73.3208 2.42678,67.1541 1.5,61C 1.67516,59.3419 2.34183,58.0086 3.5,57C 37.4158,48.5583 64.7491,30.3916 85.5,2.5 Z"/></g>
<g><path style="opacity:0.973" fill="#e0a028" d="M 86.5,-0.5 C 87.1667,-0.5 87.8333,-0.5 88.5,-0.5C 96.1941,13.0306 106.527,24.1972 119.5,33C 109.241,39.0448 99.0742,45.2115 89,51.5C 88.5012,55.4862 88.3345,59.4862 88.5,63.5C 87.8333,70.1667 87.1667,76.8333 86.5,83.5C 63.9848,96.3453 41.4848,109.345 19,122.5C 14.1582,114.995 10.6582,106.829 8.5,98C 9.34004,96.2326 10.6734,94.8993 12.5,94C 36.9966,80.2527 61.3299,66.2527 85.5,52C 86.4667,47.5986 86.8,43.0986 86.5,38.5C 87.1469,32.4108 87.4803,26.2441 87.5,20C 87.4958,13.793 86.8291,7.9597 85.5,2.5C 85.5569,1.39105 85.8902,0.391047 86.5,-0.5 Z"/></g>
<g><path style="opacity:0.972" fill="#e0a028" d="M 88.5,152.5 C 87.1797,164.931 87.1797,177.265 88.5,189.5C 88.44,190.043 88.1067,190.376 87.5,190.5C 72.8061,184.154 59.8061,175.32 48.5,164C 59.9864,155.851 71.9864,148.518 84.5,142C 85,141.5 85.5,141 86,140.5C 86.4988,136.514 86.6655,132.514 86.5,128.5C 87.1282,121.801 87.7949,115.134 88.5,108.5C 114.613,93.5604 140.613,78.3937 166.5,63C 168.65,61.5886 170.984,60.7553 173.5,60.5C 172.623,72.0024 170.79,83.3358 168,94.5C 141.547,109.649 115.214,124.982 89,140.5C 88.5012,144.486 88.3345,148.486 88.5,152.5 Z"/></g>
<g><path style="opacity:0.983" fill="#eeba31" d="M 88.5,108.5 C 87.7949,115.134 87.1282,121.801 86.5,128.5C 70.8892,136.938 55.3892,145.605 40,154.5C 38.0561,153.561 36.3894,152.227 35,150.5C 31.0829,144.874 27.2495,139.207 23.5,133.5C 43.6618,120.342 64.3285,108.009 85.5,96.5C 86.4922,92.2172 86.8256,87.8839 86.5,83.5C 87.1667,76.8333 87.8333,70.1667 88.5,63.5C 102.158,55.3353 116.158,47.6687 130.5,40.5C 140.053,45.4434 149.719,50.11 159.5,54.5C 136.172,68.1575 112.839,81.8241 89.5,95.5C 88.5078,99.7828 88.1744,104.116 88.5,108.5 Z"/></g>
<g><path style="opacity:0.98" fill="#edb931" d="M 88.5,189.5 C 87.1797,177.265 87.1797,164.931 88.5,152.5C 112.486,138.856 136.486,125.19 160.5,111.5C 160.833,112 161.167,112.5 161.5,113C 149.088,143.078 129.088,166.745 101.5,184C 97.1493,185.945 92.816,187.779 88.5,189.5 Z"/></g>
</svg>
